<svg width="162" height="197" viewBox="0 0 162 197" fill="none" xmlns="http://www.w3.org/2000/svg">
<rect width="162" height="197" fill="#141414"/>
<path d="M28.164 57.076H25.608V59.668H24.588V57.076H22.044V56.152H24.588V53.548H25.608V56.152H28.164V57.076Z" fill="white"/>
<path d="M65.164 57.076H62.608V59.668H61.588V57.076H59.044V56.152H61.588V53.548H62.608V56.152H65.164V57.076Z" fill="white"/>
<path d="M102.164 57.076H99.608V59.668H98.588V57.076H96.044V56.152H98.588V53.548H99.608V56.152H102.164V57.076Z" fill="white"/>
<path d="M25.716 35.084C24.94 35.084 24.232 34.904 23.592 34.544C22.952 34.176 22.444 33.668 22.068 33.02C21.7 32.364 21.516 31.628 21.516 30.812C21.516 29.996 21.7 29.264 22.068 28.616C22.444 27.96 22.952 27.452 23.592 27.092C24.232 26.724 24.94 26.54 25.716 26.54C26.5 26.54 27.212 26.724 27.852 27.092C28.492 27.452 28.996 27.956 29.364 28.604C29.732 29.252 29.916 29.988 29.916 30.812C29.916 31.636 29.732 32.372 29.364 33.02C28.996 33.668 28.492 34.176 27.852 34.544C27.212 34.904 26.5 35.084 25.716 35.084ZM25.716 34.136C26.3 34.136 26.824 34 27.288 33.728C27.76 33.456 28.128 33.068 28.392 32.564C28.664 32.06 28.8 31.476 28.8 30.812C28.8 30.14 28.664 29.556 28.392 29.06C28.128 28.556 27.764 28.168 27.3 27.896C26.836 27.624 26.308 27.488 25.716 27.488C25.124 27.488 24.596 27.624 24.132 27.896C23.668 28.168 23.3 28.556 23.028 29.06C22.764 29.556 22.632 30.14 22.632 30.812C22.632 31.476 22.764 32.06 23.028 32.564C23.3 33.068 23.668 33.456 24.132 33.728C24.604 34 25.132 34.136 25.716 34.136Z" fill="white"/>
<path d="M65.164 31.076H62.608V33.668H61.588V31.076H59.044V30.152H61.588V27.548H62.608V30.152H65.164V31.076Z" fill="white"/>
<path d="M102.164 31.076H99.608V33.668H98.588V31.076H96.044V30.152H98.588V27.548H99.608V30.152H102.164V31.076Z" fill="white"/>
<path d="M139.164 31.076H136.608V33.668H135.588V31.076H133.044V30.152H135.588V27.548H136.608V30.152H139.164V31.076Z" fill="white"/>
<path d="M28.164 57.076H25.608V59.668H24.588V57.076H22.044V56.152H24.588V53.548H25.608V56.152H28.164V57.076Z" fill="white"/>
<path d="M65.164 57.076H62.608V59.668H61.588V57.076H59.044V56.152H61.588V53.548H62.608V56.152H65.164V57.076Z" fill="white"/>
<path d="M102.164 57.076H99.608V59.668H98.588V57.076H96.044V56.152H98.588V53.548H99.608V56.152H102.164V57.076Z" fill="white"/>
<path d="M28.164 85.076H25.608V87.668H24.588V85.076H22.044V84.152H24.588V81.548H25.608V84.152H28.164V85.076Z" fill="white"/>
<path d="M65.164 85.076H62.608V87.668H61.588V85.076H59.044V84.152H61.588V81.548H62.608V84.152H65.164V85.076Z" fill="white"/>
<path d="M139.164 85.076H136.608V87.668H135.588V85.076H133.044V84.152H135.588V81.548H136.608V84.152H139.164V85.076Z" fill="white"/>
<path d="M83.5 71V111.5" stroke="white" stroke-width="3"/>
<path d="M65.164 112.076H62.608V114.668H61.588V112.076H59.044V111.152H61.588V108.548H62.608V111.152H65.164V112.076Z" fill="white"/>
<path d="M99.716 116.084C98.94 116.084 98.232 115.904 97.592 115.544C96.952 115.176 96.444 114.668 96.068 114.02C95.7 113.364 95.516 112.628 95.516 111.812C95.516 110.996 95.7 110.264 96.068 109.616C96.444 108.96 96.952 108.452 97.592 108.092C98.232 107.724 98.94 107.54 99.716 107.54C100.5 107.54 101.212 107.724 101.852 108.092C102.492 108.452 102.996 108.956 103.364 109.604C103.732 110.252 103.916 110.988 103.916 111.812C103.916 112.636 103.732 113.372 103.364 114.02C102.996 114.668 102.492 115.176 101.852 115.544C101.212 115.904 100.5 116.084 99.716 116.084ZM99.716 115.136C100.3 115.136 100.824 115 101.288 114.728C101.76 114.456 102.128 114.068 102.392 113.564C102.664 113.06 102.8 112.476 102.8 111.812C102.8 111.14 102.664 110.556 102.392 110.06C102.128 109.556 101.764 109.168 101.3 108.896C100.836 108.624 100.308 108.488 99.716 108.488C99.124 108.488 98.596 108.624 98.132 108.896C97.668 109.168 97.3 109.556 97.028 110.06C96.764 110.556 96.632 111.14 96.632 111.812C96.632 112.476 96.764 113.06 97.028 113.564C97.3 114.068 97.668 114.456 98.132 114.728C98.604 115 99.132 115.136 99.716 115.136Z" fill="white"/>
<path d="M139.164 112.076H136.608V114.668H135.588V112.076H133.044V111.152H135.588V108.548H136.608V111.152H139.164V112.076Z" fill="white"/>
<path d="M28.164 138.076H25.608V140.668H24.588V138.076H22.044V137.152H24.588V134.548H25.608V137.152H28.164V138.076Z" fill="white"/>
<path d="M65.164 138.076H62.608V140.668H61.588V138.076H59.044V137.152H61.588V134.548H62.608V137.152H65.164V138.076Z" fill="white"/>
<path d="M102.164 138.076H99.608V140.668H98.588V138.076H96.044V137.152H98.588V134.548H99.608V137.152H102.164V138.076Z" fill="white"/>
<path d="M139.164 138.076H136.608V140.668H135.588V138.076H133.044V137.152H135.588V134.548H136.608V137.152H139.164V138.076Z" fill="white"/>
<path d="M28.164 166.076H25.608V168.668H24.588V166.076H22.044V165.152H24.588V162.548H25.608V165.152H28.164V166.076Z" fill="white"/>
<path d="M65.164 166.076H62.608V168.668H61.588V166.076H59.044V165.152H61.588V162.548H62.608V165.152H65.164V166.076Z" fill="white"/>
<path d="M102.164 166.076H99.608V168.668H98.588V166.076H96.044V165.152H98.588V162.548H99.608V165.152H102.164V166.076Z" fill="white"/>
<path d="M139.164 166.076H136.608V168.668H135.588V166.076H133.044V165.152H135.588V162.548H136.608V165.152H139.164V166.076Z" fill="white"/>
<path d="M14.5 13H67" stroke="white" stroke-width="3"/>
</svg>
